<?xml version="1.0" encoding="UTF-8" standalone="no"?>
<!DOCTYPE svg PUBLIC "-//W3C//DTD SVG 1.1//EN" "http://www.w3.org/Graphics/SVG/1.1/DTD/svg11.dtd">
<!-- Created with Vectornator (http://vectornator.io/) -->
<svg height="100%" stroke-miterlimit="10" style="fill-rule:nonzero;clip-rule:evenodd;stroke-linecap:round;stroke-linejoin:round;" version="1.1" viewBox="0 0 2048 2048" width="100%" xml:space="preserve" xmlns="http://www.w3.org/2000/svg" xmlns:vectornator="http://vectornator.io" xmlns:xlink="http://www.w3.org/1999/xlink">
<defs>
<clipPath id="TextBounds">
<rect height="396.865" transform="matrix(1 0 0 1 133.145 1345.91)" width="1362.11" x="0" y="0"/>
</clipPath>
</defs>
<g id="レイヤー-3" vectornator:layerName="レイヤー 3">
<path d="M151.781 1024.03C124.772 1024.58 126.444 1026.06 128.125 1064C96.8945 1111.4 83.2812 1222.73 83.2812 1391.12C83.2813 1559.59 101.891 1712.52 137.094 1789.59C140.228 1798.81 145.508 1807.83 152.375 1816.66C156.148 1821.91 160.089 1826.38 164.156 1830.06C250.137 1916.39 494.792 1978.97 603.719 1978.97L1112.59 1984.81C1229.91 1984.81 1446.42 1907.69 1496.78 1809.94L1496.91 1809.88C1548.96 1712.04 1571.75 1522.84 1571.75 1350.62C1571.75 1102.9 1527.88 1059.7 1424.72 1059.7C1397.56 1059.7 1389.41 1057.89 1359.05 1058.4L235.969 1026.03C194.299 1026.03 168.096 1023.7 151.781 1024.03Z" fill="#50d5ee" fill-rule="nonzero" opacity="1" stroke="#000000" stroke-linecap="butt" stroke-linejoin="miter" stroke-width="5"/>
<g opacity="1">
<path d="M797.1 1268.61L797.1 947.247C797.1 865.233 872.275 798.748 965.009 798.748L965.009 798.748C1057.74 798.748 1132.92 865.233 1132.92 947.247L1132.92 1268.61C1132.92 1350.62 1057.74 1417.11 965.009 1417.11L965.009 1417.11C872.275 1417.11 797.1 1350.62 797.1 1268.61" fill="#50d5ee" fill-rule="nonzero" opacity="1" stroke="#000000" stroke-linecap="round" stroke-linejoin="miter" stroke-width="5"/>
<path d="M1734.28 83.2292C1857.91 83.2292 1958.14 130.434 1958.14 188.665L1958.14 227.389C1958.14 285.619 1857.91 332.824 1734.28 332.824" fill="#50d5ee" fill-rule="nonzero" opacity="1" stroke="#000000" stroke-linecap="butt" stroke-linejoin="miter" stroke-width="5"/>
<path d="M461.729 1268.61L461.729 947.247C461.729 865.233 536.904 798.748 629.637 798.748L629.637 798.748C722.37 798.748 797.546 865.233 797.546 947.247L797.546 1268.61C797.546 1350.62 722.37 1417.11 629.637 1417.11L629.637 1417.11C536.904 1417.11 461.729 1350.62 461.729 1268.61" fill="#50d5ee" fill-rule="nonzero" opacity="1" stroke="#000000" stroke-linecap="round" stroke-linejoin="miter" stroke-width="5"/>
<path d="M1757.54 83.2292C1857.25 83.2292 1938.08 130.434 1938.08 188.665L1938.08 227.389C1938.08 285.619 1857.25 332.824 1757.54 332.824" fill="#50d5ee" fill-rule="nonzero" opacity="1" stroke="#000000" stroke-linecap="butt" stroke-linejoin="miter" stroke-width="5"/>
<path d="M1757.54 83.2292C1845.41 83.2292 1916.64 130.434 1916.64 188.665L1916.64 227.389C1916.64 285.619 1845.41 332.824 1757.54 332.824" fill="#50d5ee" fill-rule="nonzero" opacity="1" stroke="#000000" stroke-linecap="butt" stroke-linejoin="miter" stroke-width="5"/>
<path d="M1757.54 332.824L783.527 332.824C706.29 332.824 643.676 285.619 643.676 227.389L643.676 188.665C643.676 130.434 706.29 83.2292 783.527 83.2292L1757.54 83.2292" fill="#f4006f" fill-rule="nonzero" opacity="1" stroke="#000000" stroke-linecap="butt" stroke-linejoin="miter" stroke-width="5"/>
<path d="M1733.94 83.2292C1824.21 83.2292 1897.39 130.434 1897.39 188.665L1897.39 227.389C1897.39 285.619 1824.21 332.824 1733.94 332.824" fill="#f4006f" fill-rule="nonzero" opacity="1" stroke="#000000" stroke-linecap="butt" stroke-linejoin="miter" stroke-width="5"/>
<path d="M1132.92 1082.97L1132.92 398.481C1132.92 223.795 1208.09 82.1842 1300.83 82.1842L1300.83 82.1842C1393.56 82.1842 1468.73 223.795 1468.73 398.481L1468.89 1056.52L1468.9 1064.12" fill="#f4006f" fill-rule="nonzero" opacity="1" stroke="#000000" stroke-linecap="round" stroke-linejoin="miter" stroke-width="5"/>
<path d="M1417.42 1455.7L933.414 1396.21C816.218 1392.39 724.881 1317.67 729.408 1229.31L729.408 1229.31C733.934 1140.95 832.609 1072.42 949.804 1076.24L1468.9 1064.12" fill="#50d5ee" fill-rule="nonzero" opacity="1" stroke="#000000" stroke-linecap="round" stroke-linejoin="miter" stroke-width="5"/>
<path d="M125.912 1068.17L125.912 601.96C125.912 482.979 201.087 386.526 293.82 386.526L293.82 386.526C386.554 386.526 461.729 482.979 461.729 601.96L461.729 1068.17" fill="#f4006f" fill-rule="nonzero" opacity="1" stroke="#000000" stroke-linecap="round" stroke-linejoin="miter" stroke-width="5"/>
<g fill="#f4006f" opacity="1" stroke="#000000" stroke-linecap="butt" stroke-linejoin="miter" stroke-width="5">
<path clip-path="url(#TextBounds)" d="M409.222 1638.49C409.222 1655.81 404.762 1671.37 395.843 1685.17C386.924 1698.97 373.87 1709.78 356.683 1717.59C339.495 1725.4 319.118 1729.31 295.55 1729.31C267.295 1729.31 243.988 1723.97 225.628 1713.29C212.607 1705.61 202.028 1695.36 193.89 1682.53C185.752 1669.71 181.683 1657.24 181.683 1645.13C181.683 1638.1 184.124 1632.08 189.007 1627.06C193.89 1622.05 200.107 1619.54 207.66 1619.54C213.779 1619.54 218.955 1621.5 223.187 1625.4C227.419 1629.31 231.032 1635.1 234.027 1642.79C237.673 1651.9 241.611 1659.52 245.843 1665.64C250.075 1671.76 256.032 1676.8 263.714 1680.77C271.397 1684.75 281.488 1686.73 293.988 1686.73C311.175 1686.73 325.14 1682.73 335.882 1674.72C346.624 1666.71 351.995 1656.72 351.995 1644.74C351.995 1635.23 349.098 1627.52 343.304 1621.59C337.51 1615.67 330.023 1611.15 320.843 1608.02C311.663 1604.9 299.391 1601.58 284.027 1598.06C263.454 1593.24 246.234 1587.61 232.367 1581.16C218.499 1574.72 207.497 1565.93 199.359 1554.8C191.221 1543.66 187.152 1529.83 187.152 1513.29C187.152 1497.54 191.449 1483.54 200.042 1471.3C208.636 1459.06 221.071 1449.65 237.347 1443.08C253.623 1436.5 272.764 1433.22 294.769 1433.22C312.347 1433.22 327.549 1435.4 340.374 1439.76C353.2 1444.12 363.844 1449.91 372.308 1457.14C380.772 1464.37 386.956 1471.95 390.863 1479.9C394.769 1487.84 396.722 1495.59 396.722 1503.14C396.722 1510.04 394.281 1516.26 389.398 1521.79C384.515 1527.32 378.428 1530.09 371.136 1530.09C364.495 1530.09 359.45 1528.43 355.999 1525.11C352.549 1521.79 348.805 1516.35 344.769 1508.8C339.561 1497.99 333.311 1489.56 326.019 1483.51C318.727 1477.45 307.008 1474.43 290.863 1474.43C275.889 1474.43 263.812 1477.71 254.632 1484.29C245.452 1490.87 240.863 1498.78 240.863 1508.02C240.863 1513.75 242.425 1518.7 245.55 1522.86C248.675 1527.03 252.972 1530.61 258.441 1533.61C263.91 1536.6 269.443 1538.94 275.042 1540.64C280.641 1542.33 289.886 1544.8 302.777 1548.06C318.923 1551.84 333.538 1556 346.624 1560.56C359.71 1565.12 370.843 1570.65 380.023 1577.16C389.202 1583.67 396.364 1591.91 401.507 1601.87C406.65 1611.83 409.222 1624.04 409.222 1638.49Z"/>
<path clip-path="url(#TextBounds)" d="M506.878 1465.64L506.878 1544.74C513.649 1536.93 520.257 1530.74 526.702 1526.18C533.148 1521.63 540.277 1518.21 548.089 1515.93C555.902 1513.65 564.3 1512.51 573.285 1512.51C586.826 1512.51 598.838 1515.38 609.32 1521.11C619.801 1526.84 628.037 1535.17 634.027 1546.11C637.803 1552.49 640.342 1559.62 641.644 1567.49C642.946 1575.37 643.597 1584.45 643.597 1594.74L643.597 1696.89C643.597 1707.56 641.156 1715.64 636.273 1721.11C631.39 1726.58 624.912 1729.31 616.839 1729.31C599.261 1729.31 590.472 1718.5 590.472 1696.89L590.472 1606.85C590.472 1589.79 587.933 1576.67 582.855 1567.49C577.777 1558.31 568.141 1553.72 553.949 1553.72C544.443 1553.72 535.882 1556.43 528.265 1561.83C520.648 1567.23 514.951 1574.62 511.175 1584C508.311 1591.94 506.878 1606.07 506.878 1626.38L506.878 1696.89C506.878 1707.43 504.502 1715.47 499.749 1721.01C494.997 1726.54 488.389 1729.31 479.925 1729.31C462.347 1729.31 453.558 1718.5 453.558 1696.89L453.558 1465.64C453.558 1454.83 455.869 1446.72 460.492 1441.32C465.114 1435.92 471.592 1433.22 479.925 1433.22C488.389 1433.22 494.997 1435.95 499.749 1441.42C504.502 1446.89 506.878 1454.96 506.878 1465.64Z"/>
<path clip-path="url(#TextBounds)" d="M834.808 1699.23L834.808 1692.4C828.428 1700.47 821.722 1707.24 814.691 1712.71C807.66 1718.18 799.977 1722.25 791.644 1724.91C783.311 1727.58 773.805 1728.92 763.128 1728.92C750.238 1728.92 738.682 1726.25 728.46 1720.91C718.239 1715.57 710.329 1708.22 704.73 1698.84C698.089 1687.51 694.769 1671.24 694.769 1650.01L694.769 1544.35C694.769 1533.67 697.178 1525.7 701.995 1520.42C706.813 1515.15 713.193 1512.51 721.136 1512.51C729.209 1512.51 735.719 1515.18 740.667 1520.52C745.615 1525.86 748.089 1533.8 748.089 1544.35L748.089 1629.7C748.089 1642.07 749.131 1652.45 751.214 1660.85C753.298 1669.25 757.041 1675.83 762.445 1680.58C767.848 1685.33 775.173 1687.71 784.417 1687.71C793.402 1687.71 801.865 1685.04 809.808 1679.7C817.751 1674.36 823.545 1667.4 827.191 1658.8C830.186 1651.25 831.683 1634.71 831.683 1609.19L831.683 1544.35C831.683 1533.8 834.157 1525.86 839.105 1520.52C844.053 1515.18 850.498 1512.51 858.441 1512.51C866.383 1512.51 872.764 1515.15 877.581 1520.42C882.399 1525.7 884.808 1533.67 884.808 1544.35L884.808 1698.84C884.808 1709 882.497 1716.61 877.874 1721.69C873.252 1726.77 867.295 1729.31 860.003 1729.31C852.712 1729.31 846.689 1726.67 841.937 1721.4C837.184 1716.13 834.808 1708.74 834.808 1699.23Z"/>
<path clip-path="url(#TextBounds)" d="M971.136 1545.72L1005.9 1664.86L1037.54 1554.11C1040.93 1542.53 1043.43 1534.62 1045.06 1530.38C1046.69 1526.15 1049.75 1522.12 1054.24 1518.27C1058.73 1514.43 1064.89 1512.51 1072.7 1512.51C1080.64 1512.51 1086.86 1514.43 1091.35 1518.27C1095.84 1522.12 1099 1526.28 1100.82 1530.77C1102.65 1535.27 1105.19 1543.05 1108.44 1554.11L1140.08 1664.86L1175.24 1545.72C1177.58 1537.12 1179.47 1530.9 1180.9 1527.06C1182.33 1523.22 1184.74 1519.84 1188.13 1516.91C1191.51 1513.98 1196.4 1512.51 1202.78 1512.51C1209.16 1512.51 1214.69 1514.73 1219.38 1519.15C1224.07 1523.58 1226.41 1528.79 1226.41 1534.78C1226.41 1540.25 1224.39 1548.52 1220.35 1559.58L1176.8 1687.32C1173.02 1698.12 1170.09 1705.94 1168.01 1710.75C1165.93 1715.57 1162.64 1719.87 1158.15 1723.65C1153.66 1727.42 1147.5 1729.31 1139.69 1729.31C1131.62 1729.31 1125.27 1727.29 1120.65 1723.25C1116.03 1719.22 1112.61 1714.27 1110.39 1708.41C1108.18 1702.55 1105.77 1694.93 1103.17 1685.56L1072.7 1581.65L1043.21 1685.56C1039.3 1700.01 1035.07 1710.92 1030.51 1718.27C1025.95 1725.63 1017.95 1729.31 1006.49 1729.31C1000.63 1729.31 995.648 1728.17 991.546 1725.89C987.445 1723.61 984.027 1720.36 981.292 1716.13C978.558 1711.89 976.149 1706.88 974.066 1701.09C971.982 1695.29 970.355 1690.7 969.183 1687.32L926.019 1559.58C921.722 1547.6 919.574 1539.34 919.574 1534.78C919.574 1529.05 921.852 1523.91 926.41 1519.35C930.967 1514.79 936.566 1512.51 943.206 1512.51C952.061 1512.51 958.05 1515.02 961.175 1520.03C964.3 1525.05 967.62 1533.61 971.136 1545.72Z"/>
<path clip-path="url(#TextBounds)" d="M1392.62 1699.23C1379.73 1709.26 1367.26 1716.78 1355.22 1721.79C1343.17 1726.8 1329.66 1729.31 1314.69 1729.31C1301.02 1729.31 1289.01 1726.61 1278.66 1721.2C1268.3 1715.8 1260.33 1708.48 1254.73 1699.23C1249.13 1689.99 1246.33 1679.96 1246.33 1669.15C1246.33 1654.57 1250.95 1642.13 1260.2 1631.85C1269.44 1621.56 1282.14 1614.66 1298.28 1611.15C1301.67 1610.36 1310.07 1608.61 1323.48 1605.87C1336.89 1603.14 1348.38 1600.63 1357.95 1598.35C1367.52 1596.07 1377.91 1593.31 1389.1 1590.05C1388.45 1575.99 1385.62 1565.67 1380.61 1559.09C1375.6 1552.52 1365.21 1549.23 1349.46 1549.23C1335.91 1549.23 1325.73 1551.12 1318.89 1554.9C1312.05 1558.67 1306.19 1564.34 1301.31 1571.89C1296.43 1579.44 1292.98 1584.42 1290.96 1586.83C1288.94 1589.24 1284.61 1590.44 1277.97 1590.44C1271.98 1590.44 1266.81 1588.52 1262.44 1584.68C1258.08 1580.84 1255.9 1575.92 1255.9 1569.93C1255.9 1560.56 1259.22 1551.44 1265.86 1542.59C1272.5 1533.74 1282.85 1526.44 1296.92 1520.72C1310.98 1514.99 1328.49 1512.12 1349.46 1512.12C1372.89 1512.12 1391.32 1514.89 1404.73 1520.42C1418.14 1525.96 1427.61 1534.71 1433.15 1546.69C1438.68 1558.67 1441.45 1574.56 1441.45 1594.35C1441.45 1606.85 1441.42 1617.46 1441.35 1626.18C1441.29 1634.91 1441.19 1644.61 1441.06 1655.29C1441.06 1665.31 1442.72 1675.76 1446.04 1686.63C1449.36 1697.51 1451.02 1704.5 1451.02 1707.63C1451.02 1713.1 1448.45 1718.08 1443.3 1722.57C1438.16 1727.06 1432.33 1729.31 1425.82 1729.31C1420.35 1729.31 1414.95 1726.74 1409.61 1721.59C1404.27 1716.45 1398.61 1709 1392.62 1699.23ZM1389.1 1622.08C1381.29 1624.95 1369.93 1627.97 1355.02 1631.16C1340.11 1634.36 1329.79 1636.7 1324.07 1638.2C1318.34 1639.69 1312.87 1642.62 1307.66 1646.99C1302.45 1651.35 1299.85 1657.43 1299.85 1665.25C1299.85 1673.32 1302.91 1680.19 1309.03 1685.85C1315.15 1691.52 1323.15 1694.35 1333.05 1694.35C1343.6 1694.35 1353.33 1692.04 1362.25 1687.41C1371.17 1682.79 1377.71 1676.84 1381.88 1669.54C1386.7 1661.47 1389.1 1648.19 1389.1 1629.7L1389.1 1622.08Z"/>
</g>
<path d="M1698.04 285.508C1698.04 259.377 1724.68 238.193 1757.54 238.193C1790.4 238.193 1817.03 259.377 1817.03 285.508C1817.03 311.64 1790.4 332.824 1757.54 332.824C1724.68 332.824 1698.04 311.64 1698.04 285.508Z" fill="#50d5ee" fill-rule="nonzero" opacity="1" stroke="#000000" stroke-linecap="butt" stroke-linejoin="miter" stroke-width="5"/>
</g>
</g>
</svg>
